<mxfile host="app.diagrams.net" modified="2023-04-20T15:26:53.367Z" agent="Mozilla/5.0 (Windows NT 10.0; Win64; x64; rv:109.0) Gecko/20100101 Firefox/112.0" etag="f7fM31dBlRohSEZrS6wA" version="21.2.1" type="github">
  <diagram id="R2lEEEUBdFMjLlhIrx00" name="Page-1">
    <mxGraphModel dx="1687" dy="911" grid="1" gridSize="10" guides="1" tooltips="1" connect="1" arrows="1" fold="1" page="1" pageScale="1" pageWidth="850" pageHeight="1100" math="0" shadow="0" extFonts="Permanent Marker^https://fonts.googleapis.com/css?family=Permanent+Marker">
      <root>
        <mxCell id="0" />
        <mxCell id="1" parent="0" />
        <mxCell id="C-vyLk0tnHw3VtMMgP7b-1" value="" style="edgeStyle=entityRelationEdgeStyle;endArrow=ERzeroToMany;startArrow=ERone;endFill=1;startFill=0;" parent="1" source="h8qXrJD4TZeDcTLQphAm-74" target="C-vyLk0tnHw3VtMMgP7b-6" edge="1">
          <mxGeometry width="100" height="100" relative="1" as="geometry">
            <mxPoint x="340" y="720" as="sourcePoint" />
            <mxPoint x="440" y="620" as="targetPoint" />
          </mxGeometry>
        </mxCell>
        <mxCell id="C-vyLk0tnHw3VtMMgP7b-2" value="UniversitÃ " style="shape=table;startSize=30;container=1;collapsible=1;childLayout=tableLayout;fixedRows=1;rowLines=0;fontStyle=1;align=center;resizeLast=1;" parent="1" vertex="1">
          <mxGeometry x="1320" y="230" width="250" height="270" as="geometry" />
        </mxCell>
        <mxCell id="C-vyLk0tnHw3VtMMgP7b-3" value="" style="shape=partialRectangle;collapsible=0;dropTarget=0;pointerEvents=0;fillColor=none;points=[[0,0.5],[1,0.5]];portConstraint=eastwest;top=0;left=0;right=0;bottom=1;" parent="C-vyLk0tnHw3VtMMgP7b-2" vertex="1">
          <mxGeometry y="30" width="250" height="30" as="geometry" />
        </mxCell>
        <mxCell id="C-vyLk0tnHw3VtMMgP7b-4" value="PK" style="shape=partialRectangle;overflow=hidden;connectable=0;fillColor=none;top=0;left=0;bottom=0;right=0;fontStyle=1;" parent="C-vyLk0tnHw3VtMMgP7b-3" vertex="1">
          <mxGeometry width="40" height="30" as="geometry">
            <mxRectangle width="40" height="30" as="alternateBounds" />
          </mxGeometry>
        </mxCell>
        <mxCell id="C-vyLk0tnHw3VtMMgP7b-5" value="ID" style="shape=partialRectangle;overflow=hidden;connectable=0;fillColor=none;top=0;left=0;bottom=0;right=0;align=left;spacingLeft=6;fontStyle=5;" parent="C-vyLk0tnHw3VtMMgP7b-3" vertex="1">
          <mxGeometry x="40" width="210" height="30" as="geometry">
            <mxRectangle width="210" height="30" as="alternateBounds" />
          </mxGeometry>
        </mxCell>
        <mxCell id="C-vyLk0tnHw3VtMMgP7b-6" value="" style="shape=partialRectangle;collapsible=0;dropTarget=0;pointerEvents=0;fillColor=none;points=[[0,0.5],[1,0.5]];portConstraint=eastwest;top=0;left=0;right=0;bottom=0;" parent="C-vyLk0tnHw3VtMMgP7b-2" vertex="1">
          <mxGeometry y="60" width="250" height="30" as="geometry" />
        </mxCell>
        <mxCell id="C-vyLk0tnHw3VtMMgP7b-7" value="" style="shape=partialRectangle;overflow=hidden;connectable=0;fillColor=none;top=0;left=0;bottom=0;right=0;" parent="C-vyLk0tnHw3VtMMgP7b-6" vertex="1">
          <mxGeometry width="40" height="30" as="geometry">
            <mxRectangle width="40" height="30" as="alternateBounds" />
          </mxGeometry>
        </mxCell>
        <mxCell id="C-vyLk0tnHw3VtMMgP7b-8" value="Sapienza" style="shape=partialRectangle;overflow=hidden;connectable=0;fillColor=none;top=0;left=0;bottom=0;right=0;align=left;spacingLeft=6;" parent="C-vyLk0tnHw3VtMMgP7b-6" vertex="1">
          <mxGeometry x="40" width="210" height="30" as="geometry">
            <mxRectangle width="210" height="30" as="alternateBounds" />
          </mxGeometry>
        </mxCell>
        <mxCell id="C-vyLk0tnHw3VtMMgP7b-9" value="" style="shape=partialRectangle;collapsible=0;dropTarget=0;pointerEvents=0;fillColor=none;points=[[0,0.5],[1,0.5]];portConstraint=eastwest;top=0;left=0;right=0;bottom=0;" parent="C-vyLk0tnHw3VtMMgP7b-2" vertex="1">
          <mxGeometry y="90" width="250" height="180" as="geometry" />
        </mxCell>
        <mxCell id="C-vyLk0tnHw3VtMMgP7b-10" value="" style="shape=partialRectangle;overflow=hidden;connectable=0;fillColor=none;top=0;left=0;bottom=0;right=0;" parent="C-vyLk0tnHw3VtMMgP7b-9" vertex="1">
          <mxGeometry width="40" height="180" as="geometry">
            <mxRectangle width="40" height="180" as="alternateBounds" />
          </mxGeometry>
        </mxCell>
        <mxCell id="C-vyLk0tnHw3VtMMgP7b-11" value="Roma Tre&#xa;&#xa;&#xa;&#xa;&#xa;Torvergata&#xa;" style="shape=partialRectangle;overflow=hidden;connectable=0;fillColor=none;top=0;left=0;bottom=0;right=0;align=left;spacingLeft=6;" parent="C-vyLk0tnHw3VtMMgP7b-9" vertex="1">
          <mxGeometry x="40" width="210" height="180" as="geometry">
            <mxRectangle width="210" height="180" as="alternateBounds" />
          </mxGeometry>
        </mxCell>
        <mxCell id="h8qXrJD4TZeDcTLQphAm-7" style="edgeStyle=orthogonalEdgeStyle;rounded=0;orthogonalLoop=1;jettySize=auto;html=1;entryX=0.5;entryY=0;entryDx=0;entryDy=0;" parent="1" source="C-vyLk0tnHw3VtMMgP7b-23" target="h8qXrJD4TZeDcTLQphAm-6" edge="1">
          <mxGeometry relative="1" as="geometry">
            <mxPoint x="205" y="670" as="targetPoint" />
          </mxGeometry>
        </mxCell>
        <mxCell id="C-vyLk0tnHw3VtMMgP7b-23" value="Dipartimenti" style="shape=table;startSize=30;container=1;collapsible=1;childLayout=tableLayout;fixedRows=1;rowLines=0;fontStyle=1;align=center;resizeLast=1;" parent="1" vertex="1">
          <mxGeometry x="870" y="210" width="250" height="400" as="geometry" />
        </mxCell>
        <mxCell id="C-vyLk0tnHw3VtMMgP7b-24" value="" style="shape=partialRectangle;collapsible=0;dropTarget=0;pointerEvents=0;fillColor=none;points=[[0,0.5],[1,0.5]];portConstraint=eastwest;top=0;left=0;right=0;bottom=1;" parent="C-vyLk0tnHw3VtMMgP7b-23" vertex="1">
          <mxGeometry y="30" width="250" height="30" as="geometry" />
        </mxCell>
        <mxCell id="C-vyLk0tnHw3VtMMgP7b-25" value="PK" style="shape=partialRectangle;overflow=hidden;connectable=0;fillColor=none;top=0;left=0;bottom=0;right=0;fontStyle=1;" parent="C-vyLk0tnHw3VtMMgP7b-24" vertex="1">
          <mxGeometry width="30" height="30" as="geometry">
            <mxRectangle width="30" height="30" as="alternateBounds" />
          </mxGeometry>
        </mxCell>
        <mxCell id="C-vyLk0tnHw3VtMMgP7b-26" value="id (VARCHAR 30) " style="shape=partialRectangle;overflow=hidden;connectable=0;fillColor=none;top=0;left=0;bottom=0;right=0;align=left;spacingLeft=6;fontStyle=5;" parent="C-vyLk0tnHw3VtMMgP7b-24" vertex="1">
          <mxGeometry x="30" width="220" height="30" as="geometry">
            <mxRectangle width="220" height="30" as="alternateBounds" />
          </mxGeometry>
        </mxCell>
        <mxCell id="C-vyLk0tnHw3VtMMgP7b-27" value="" style="shape=partialRectangle;collapsible=0;dropTarget=0;pointerEvents=0;fillColor=none;points=[[0,0.5],[1,0.5]];portConstraint=eastwest;top=0;left=0;right=0;bottom=0;" parent="C-vyLk0tnHw3VtMMgP7b-23" vertex="1">
          <mxGeometry y="60" width="250" height="340" as="geometry" />
        </mxCell>
        <mxCell id="C-vyLk0tnHw3VtMMgP7b-28" value="" style="shape=partialRectangle;overflow=hidden;connectable=0;fillColor=none;top=0;left=0;bottom=0;right=0;" parent="C-vyLk0tnHw3VtMMgP7b-27" vertex="1">
          <mxGeometry width="30" height="340" as="geometry">
            <mxRectangle width="30" height="340" as="alternateBounds" />
          </mxGeometry>
        </mxCell>
        <mxCell id="C-vyLk0tnHw3VtMMgP7b-29" value="Lettere e Filosofia&#xa;&#xa;Informatica&#xa;&#xa;Matematica&#xa;&#xa;Scienze naturali &#xa;&#xa;Medicina&#xa;&#xa;Scienze umanistiche" style="shape=partialRectangle;overflow=hidden;connectable=0;fillColor=none;top=0;left=0;bottom=0;right=0;align=left;spacingLeft=6;" parent="C-vyLk0tnHw3VtMMgP7b-27" vertex="1">
          <mxGeometry x="30" width="220" height="340" as="geometry">
            <mxRectangle width="220" height="340" as="alternateBounds" />
          </mxGeometry>
        </mxCell>
        <mxCell id="h8qXrJD4TZeDcTLQphAm-6" value="&lt;div&gt;Selezione &lt;br&gt;&lt;/div&gt;&lt;div&gt;Corso&lt;br&gt;&lt;/div&gt;" style="rhombus;whiteSpace=wrap;html=1;" parent="1" vertex="1">
          <mxGeometry x="680" y="380" width="80" height="80" as="geometry" />
        </mxCell>
        <mxCell id="h8qXrJD4TZeDcTLQphAm-20" value="" style="edgeStyle=orthogonalEdgeStyle;rounded=0;orthogonalLoop=1;jettySize=auto;html=1;" parent="1" source="h8qXrJD4TZeDcTLQphAm-12" target="h8qXrJD4TZeDcTLQphAm-19" edge="1">
          <mxGeometry relative="1" as="geometry" />
        </mxCell>
        <mxCell id="h8qXrJD4TZeDcTLQphAm-12" value="Corsi di laurea" style="shape=table;startSize=30;container=1;collapsible=1;childLayout=tableLayout;fixedRows=1;rowLines=0;fontStyle=1;align=center;resizeLast=1;" parent="1" vertex="1">
          <mxGeometry x="400" y="220" width="250" height="400" as="geometry" />
        </mxCell>
        <mxCell id="h8qXrJD4TZeDcTLQphAm-13" value="" style="shape=partialRectangle;collapsible=0;dropTarget=0;pointerEvents=0;fillColor=none;points=[[0,0.5],[1,0.5]];portConstraint=eastwest;top=0;left=0;right=0;bottom=1;" parent="h8qXrJD4TZeDcTLQphAm-12" vertex="1">
          <mxGeometry y="30" width="250" height="30" as="geometry" />
        </mxCell>
        <mxCell id="h8qXrJD4TZeDcTLQphAm-14" value="PK" style="shape=partialRectangle;overflow=hidden;connectable=0;fillColor=none;top=0;left=0;bottom=0;right=0;fontStyle=1;" parent="h8qXrJD4TZeDcTLQphAm-13" vertex="1">
          <mxGeometry width="30" height="30" as="geometry">
            <mxRectangle width="30" height="30" as="alternateBounds" />
          </mxGeometry>
        </mxCell>
        <mxCell id="h8qXrJD4TZeDcTLQphAm-15" value="id (VARCHAR 30)" style="shape=partialRectangle;overflow=hidden;connectable=0;fillColor=none;top=0;left=0;bottom=0;right=0;align=left;spacingLeft=6;fontStyle=5;" parent="h8qXrJD4TZeDcTLQphAm-13" vertex="1">
          <mxGeometry x="30" width="220" height="30" as="geometry">
            <mxRectangle width="220" height="30" as="alternateBounds" />
          </mxGeometry>
        </mxCell>
        <mxCell id="h8qXrJD4TZeDcTLQphAm-16" value="" style="shape=partialRectangle;collapsible=0;dropTarget=0;pointerEvents=0;fillColor=none;points=[[0,0.5],[1,0.5]];portConstraint=eastwest;top=0;left=0;right=0;bottom=0;" parent="h8qXrJD4TZeDcTLQphAm-12" vertex="1">
          <mxGeometry y="60" width="250" height="340" as="geometry" />
        </mxCell>
        <mxCell id="h8qXrJD4TZeDcTLQphAm-17" value="" style="shape=partialRectangle;overflow=hidden;connectable=0;fillColor=none;top=0;left=0;bottom=0;right=0;" parent="h8qXrJD4TZeDcTLQphAm-16" vertex="1">
          <mxGeometry width="30" height="340" as="geometry">
            <mxRectangle width="30" height="340" as="alternateBounds" />
          </mxGeometry>
        </mxCell>
        <mxCell id="h8qXrJD4TZeDcTLQphAm-18" value="Lettere Antiche&#xa;&#xa;Lettere Moderne&#xa;&#xa;Storia delle religioni&#xa;&#xa;Storia dell&#39;&#39;arte&#xa;&#xa;Storia&#xa;&#xa;Beni Culturali" style="shape=partialRectangle;overflow=hidden;connectable=0;fillColor=none;top=0;left=0;bottom=0;right=0;align=left;spacingLeft=6;" parent="h8qXrJD4TZeDcTLQphAm-16" vertex="1">
          <mxGeometry x="30" width="220" height="340" as="geometry">
            <mxRectangle width="220" height="340" as="alternateBounds" />
          </mxGeometry>
        </mxCell>
        <mxCell id="h8qXrJD4TZeDcTLQphAm-19" value="&lt;div&gt;Selezione&lt;/div&gt;&lt;div&gt;Materia&lt;br&gt;&lt;/div&gt;" style="rhombus;whiteSpace=wrap;html=1;startSize=30;fontStyle=1;" parent="1" vertex="1">
          <mxGeometry x="290" y="400" width="80" height="80" as="geometry" />
        </mxCell>
        <mxCell id="pwPn2gaEZ3_HKGQv34FF-6" value="" style="edgeStyle=orthogonalEdgeStyle;rounded=0;orthogonalLoop=1;jettySize=auto;html=1;entryX=-0.01;entryY=0.024;entryDx=0;entryDy=0;entryPerimeter=0;" edge="1" parent="1" source="h8qXrJD4TZeDcTLQphAm-22" target="h8qXrJD4TZeDcTLQphAm-54">
          <mxGeometry relative="1" as="geometry">
            <mxPoint x="137.5" y="850" as="targetPoint" />
          </mxGeometry>
        </mxCell>
        <mxCell id="h8qXrJD4TZeDcTLQphAm-22" value="&lt;div&gt;Selezione &lt;br&gt;&lt;/div&gt;&lt;div&gt;Proff&lt;br&gt;&lt;/div&gt;" style="rhombus;whiteSpace=wrap;html=1;" parent="1" vertex="1">
          <mxGeometry x="97.5" y="680" width="80" height="80" as="geometry" />
        </mxCell>
        <mxCell id="pwPn2gaEZ3_HKGQv34FF-4" value="" style="edgeStyle=orthogonalEdgeStyle;rounded=0;orthogonalLoop=1;jettySize=auto;html=1;" edge="1" parent="1" source="h8qXrJD4TZeDcTLQphAm-23" target="h8qXrJD4TZeDcTLQphAm-22">
          <mxGeometry relative="1" as="geometry" />
        </mxCell>
        <mxCell id="h8qXrJD4TZeDcTLQphAm-23" value="Corsi di Esame" style="shape=table;startSize=30;container=1;collapsible=1;childLayout=tableLayout;fixedRows=1;rowLines=0;fontStyle=1;align=center;resizeLast=1;" parent="1" vertex="1">
          <mxGeometry x="10" y="220" width="255" height="400" as="geometry" />
        </mxCell>
        <mxCell id="h8qXrJD4TZeDcTLQphAm-24" value="" style="shape=partialRectangle;collapsible=0;dropTarget=0;pointerEvents=0;fillColor=none;points=[[0,0.5],[1,0.5]];portConstraint=eastwest;top=0;left=0;right=0;bottom=1;" parent="h8qXrJD4TZeDcTLQphAm-23" vertex="1">
          <mxGeometry y="30" width="255" height="30" as="geometry" />
        </mxCell>
        <mxCell id="h8qXrJD4TZeDcTLQphAm-25" value="PK" style="shape=partialRectangle;overflow=hidden;connectable=0;fillColor=none;top=0;left=0;bottom=0;right=0;fontStyle=1;" parent="h8qXrJD4TZeDcTLQphAm-24" vertex="1">
          <mxGeometry width="30" height="30" as="geometry">
            <mxRectangle width="30" height="30" as="alternateBounds" />
          </mxGeometry>
        </mxCell>
        <mxCell id="h8qXrJD4TZeDcTLQphAm-26" value="id (VARCHAR 50)" style="shape=partialRectangle;overflow=hidden;connectable=0;fillColor=none;top=0;left=0;bottom=0;right=0;align=left;spacingLeft=6;fontStyle=5;" parent="h8qXrJD4TZeDcTLQphAm-24" vertex="1">
          <mxGeometry x="30" width="225" height="30" as="geometry">
            <mxRectangle width="225" height="30" as="alternateBounds" />
          </mxGeometry>
        </mxCell>
        <mxCell id="h8qXrJD4TZeDcTLQphAm-27" value="" style="shape=partialRectangle;collapsible=0;dropTarget=0;pointerEvents=0;fillColor=none;points=[[0,0.5],[1,0.5]];portConstraint=eastwest;top=0;left=0;right=0;bottom=0;" parent="h8qXrJD4TZeDcTLQphAm-23" vertex="1">
          <mxGeometry y="60" width="255" height="340" as="geometry" />
        </mxCell>
        <mxCell id="h8qXrJD4TZeDcTLQphAm-28" value="" style="shape=partialRectangle;overflow=hidden;connectable=0;fillColor=none;top=0;left=0;bottom=0;right=0;" parent="h8qXrJD4TZeDcTLQphAm-27" vertex="1">
          <mxGeometry width="30" height="340" as="geometry">
            <mxRectangle width="30" height="340" as="alternateBounds" />
          </mxGeometry>
        </mxCell>
        <mxCell id="h8qXrJD4TZeDcTLQphAm-29" value="Storia medievale&#xa;&#xa;Storia moderna&#xa;&#xa;Storia delle religioni&#xa;&#xa;Storia Contemporanea&#xa;&#xa;Storia e istituzioni dell&#39;Asia&#xa;&#xa;Storia e istituzioni dell&#39;Islam" style="shape=partialRectangle;overflow=hidden;connectable=0;fillColor=none;top=0;left=0;bottom=0;right=0;align=left;spacingLeft=6;" parent="h8qXrJD4TZeDcTLQphAm-27" vertex="1">
          <mxGeometry x="30" width="225" height="340" as="geometry">
            <mxRectangle width="225" height="340" as="alternateBounds" />
          </mxGeometry>
        </mxCell>
        <mxCell id="h8qXrJD4TZeDcTLQphAm-61" value="" style="edgeStyle=orthogonalEdgeStyle;rounded=0;orthogonalLoop=1;jettySize=auto;html=1;" parent="1" source="h8qXrJD4TZeDcTLQphAm-47" target="h8qXrJD4TZeDcTLQphAm-60" edge="1">
          <mxGeometry relative="1" as="geometry" />
        </mxCell>
        <mxCell id="h8qXrJD4TZeDcTLQphAm-47" value="Professori" style="shape=table;startSize=30;container=1;collapsible=1;childLayout=tableLayout;fixedRows=1;rowLines=0;fontStyle=1;align=center;resizeLast=1;" parent="1" vertex="1">
          <mxGeometry x="205" y="750" width="250" height="320" as="geometry" />
        </mxCell>
        <mxCell id="h8qXrJD4TZeDcTLQphAm-48" value="" style="shape=partialRectangle;collapsible=0;dropTarget=0;pointerEvents=0;fillColor=none;points=[[0,0.5],[1,0.5]];portConstraint=eastwest;top=0;left=0;right=0;bottom=1;" parent="h8qXrJD4TZeDcTLQphAm-47" vertex="1">
          <mxGeometry y="30" width="250" height="30" as="geometry" />
        </mxCell>
        <mxCell id="h8qXrJD4TZeDcTLQphAm-49" value="PK" style="shape=partialRectangle;overflow=hidden;connectable=0;fillColor=none;top=0;left=0;bottom=0;right=0;fontStyle=1;" parent="h8qXrJD4TZeDcTLQphAm-48" vertex="1">
          <mxGeometry width="40" height="30" as="geometry">
            <mxRectangle width="40" height="30" as="alternateBounds" />
          </mxGeometry>
        </mxCell>
        <mxCell id="h8qXrJD4TZeDcTLQphAm-50" value="ID VARCHAR(20)" style="shape=partialRectangle;overflow=hidden;connectable=0;fillColor=none;top=0;left=0;bottom=0;right=0;align=left;spacingLeft=6;fontStyle=5;" parent="h8qXrJD4TZeDcTLQphAm-48" vertex="1">
          <mxGeometry x="40" width="210" height="30" as="geometry">
            <mxRectangle width="210" height="30" as="alternateBounds" />
          </mxGeometry>
        </mxCell>
        <mxCell id="h8qXrJD4TZeDcTLQphAm-51" value="" style="shape=partialRectangle;collapsible=0;dropTarget=0;pointerEvents=0;fillColor=none;points=[[0,0.5],[1,0.5]];portConstraint=eastwest;top=0;left=0;right=0;bottom=0;" parent="h8qXrJD4TZeDcTLQphAm-47" vertex="1">
          <mxGeometry y="60" width="250" height="30" as="geometry" />
        </mxCell>
        <mxCell id="h8qXrJD4TZeDcTLQphAm-52" value="" style="shape=partialRectangle;overflow=hidden;connectable=0;fillColor=none;top=0;left=0;bottom=0;right=0;" parent="h8qXrJD4TZeDcTLQphAm-51" vertex="1">
          <mxGeometry width="40" height="30" as="geometry">
            <mxRectangle width="40" height="30" as="alternateBounds" />
          </mxGeometry>
        </mxCell>
        <mxCell id="h8qXrJD4TZeDcTLQphAm-53" value="Vito LorÃ¨" style="shape=partialRectangle;overflow=hidden;connectable=0;fillColor=none;top=0;left=0;bottom=0;right=0;align=left;spacingLeft=6;" parent="h8qXrJD4TZeDcTLQphAm-51" vertex="1">
          <mxGeometry x="40" width="210" height="30" as="geometry">
            <mxRectangle width="210" height="30" as="alternateBounds" />
          </mxGeometry>
        </mxCell>
        <mxCell id="h8qXrJD4TZeDcTLQphAm-54" value="" style="shape=partialRectangle;collapsible=0;dropTarget=0;pointerEvents=0;fillColor=none;points=[[0,0.5],[1,0.5]];portConstraint=eastwest;top=0;left=0;right=0;bottom=0;" parent="h8qXrJD4TZeDcTLQphAm-47" vertex="1">
          <mxGeometry y="90" width="250" height="230" as="geometry" />
        </mxCell>
        <mxCell id="h8qXrJD4TZeDcTLQphAm-55" value="" style="shape=partialRectangle;overflow=hidden;connectable=0;fillColor=none;top=0;left=0;bottom=0;right=0;" parent="h8qXrJD4TZeDcTLQphAm-54" vertex="1">
          <mxGeometry width="40" height="230" as="geometry">
            <mxRectangle width="40" height="230" as="alternateBounds" />
          </mxGeometry>
        </mxCell>
        <mxCell id="h8qXrJD4TZeDcTLQphAm-56" value="Stefano Andretta&#xa;&#xa;Gennaro Gervasio&#xa;&#xa;Oliviero Frattolillo &#xa;&#xa;&#xa;Alessandro Volta &#xa;&#xa;&#xa;Paolo Mattera&#xa;&#xa;Maria Chiara Giorda&#xa;" style="shape=partialRectangle;overflow=hidden;connectable=0;fillColor=none;top=0;left=0;bottom=0;right=0;align=left;spacingLeft=6;" parent="h8qXrJD4TZeDcTLQphAm-54" vertex="1">
          <mxGeometry x="40" width="210" height="230" as="geometry">
            <mxRectangle width="210" height="230" as="alternateBounds" />
          </mxGeometry>
        </mxCell>
        <mxCell id="pwPn2gaEZ3_HKGQv34FF-7" value="" style="edgeStyle=orthogonalEdgeStyle;rounded=0;orthogonalLoop=1;jettySize=auto;html=1;" edge="1" parent="1" source="h8qXrJD4TZeDcTLQphAm-60" target="h8qXrJD4TZeDcTLQphAm-66">
          <mxGeometry relative="1" as="geometry" />
        </mxCell>
        <mxCell id="h8qXrJD4TZeDcTLQphAm-60" value="&lt;div&gt;Data &lt;br&gt;&lt;/div&gt;&lt;div&gt;d&#39;esame&lt;/div&gt;" style="rhombus;whiteSpace=wrap;html=1;startSize=30;fontStyle=1;" parent="1" vertex="1">
          <mxGeometry x="540" y="870" width="80" height="80" as="geometry" />
        </mxCell>
        <mxCell id="h8qXrJD4TZeDcTLQphAm-76" value="" style="edgeStyle=orthogonalEdgeStyle;rounded=0;orthogonalLoop=1;jettySize=auto;html=1;" parent="1" source="h8qXrJD4TZeDcTLQphAm-62" target="h8qXrJD4TZeDcTLQphAm-75" edge="1">
          <mxGeometry relative="1" as="geometry" />
        </mxCell>
        <mxCell id="h8qXrJD4TZeDcTLQphAm-62" value="Appelli" style="shape=table;startSize=30;container=1;collapsible=1;childLayout=tableLayout;fixedRows=1;rowLines=0;fontStyle=1;align=center;resizeLast=1;" parent="1" vertex="1">
          <mxGeometry x="670" y="780" width="250" height="220" as="geometry" />
        </mxCell>
        <mxCell id="h8qXrJD4TZeDcTLQphAm-63" value="" style="shape=partialRectangle;collapsible=0;dropTarget=0;pointerEvents=0;fillColor=none;points=[[0,0.5],[1,0.5]];portConstraint=eastwest;top=0;left=0;right=0;bottom=1;" parent="h8qXrJD4TZeDcTLQphAm-62" vertex="1">
          <mxGeometry y="30" width="250" height="30" as="geometry" />
        </mxCell>
        <mxCell id="h8qXrJD4TZeDcTLQphAm-64" value="PK" style="shape=partialRectangle;overflow=hidden;connectable=0;fillColor=none;top=0;left=0;bottom=0;right=0;fontStyle=1;" parent="h8qXrJD4TZeDcTLQphAm-63" vertex="1">
          <mxGeometry width="40" height="30" as="geometry">
            <mxRectangle width="40" height="30" as="alternateBounds" />
          </mxGeometry>
        </mxCell>
        <mxCell id="h8qXrJD4TZeDcTLQphAm-65" value="ID (DATE)" style="shape=partialRectangle;overflow=hidden;connectable=0;fillColor=none;top=0;left=0;bottom=0;right=0;align=left;spacingLeft=6;fontStyle=5;" parent="h8qXrJD4TZeDcTLQphAm-63" vertex="1">
          <mxGeometry x="40" width="210" height="30" as="geometry">
            <mxRectangle width="210" height="30" as="alternateBounds" />
          </mxGeometry>
        </mxCell>
        <mxCell id="h8qXrJD4TZeDcTLQphAm-66" value="" style="shape=partialRectangle;collapsible=0;dropTarget=0;pointerEvents=0;fillColor=none;points=[[0,0.5],[1,0.5]];portConstraint=eastwest;top=0;left=0;right=0;bottom=0;" parent="h8qXrJD4TZeDcTLQphAm-62" vertex="1">
          <mxGeometry y="60" width="250" height="140" as="geometry" />
        </mxCell>
        <mxCell id="h8qXrJD4TZeDcTLQphAm-67" value="" style="shape=partialRectangle;overflow=hidden;connectable=0;fillColor=none;top=0;left=0;bottom=0;right=0;" parent="h8qXrJD4TZeDcTLQphAm-66" vertex="1">
          <mxGeometry width="40" height="140" as="geometry">
            <mxRectangle width="40" height="140" as="alternateBounds" />
          </mxGeometry>
        </mxCell>
        <mxCell id="h8qXrJD4TZeDcTLQphAm-68" value="20/04/2020&#xa;&#xa;&#xa;29/04/2020&#xa;" style="shape=partialRectangle;overflow=hidden;connectable=0;fillColor=none;top=0;left=0;bottom=0;right=0;align=left;spacingLeft=6;" parent="h8qXrJD4TZeDcTLQphAm-66" vertex="1">
          <mxGeometry x="40" width="210" height="140" as="geometry">
            <mxRectangle width="210" height="140" as="alternateBounds" />
          </mxGeometry>
        </mxCell>
        <mxCell id="h8qXrJD4TZeDcTLQphAm-69" value="" style="shape=partialRectangle;collapsible=0;dropTarget=0;pointerEvents=0;fillColor=none;points=[[0,0.5],[1,0.5]];portConstraint=eastwest;top=0;left=0;right=0;bottom=0;" parent="h8qXrJD4TZeDcTLQphAm-62" vertex="1">
          <mxGeometry y="200" width="250" height="20" as="geometry" />
        </mxCell>
        <mxCell id="h8qXrJD4TZeDcTLQphAm-70" value="" style="shape=partialRectangle;overflow=hidden;connectable=0;fillColor=none;top=0;left=0;bottom=0;right=0;" parent="h8qXrJD4TZeDcTLQphAm-69" vertex="1">
          <mxGeometry width="40" height="20" as="geometry">
            <mxRectangle width="40" height="20" as="alternateBounds" />
          </mxGeometry>
        </mxCell>
        <mxCell id="h8qXrJD4TZeDcTLQphAm-71" value="" style="shape=partialRectangle;overflow=hidden;connectable=0;fillColor=none;top=0;left=0;bottom=0;right=0;align=left;spacingLeft=6;" parent="h8qXrJD4TZeDcTLQphAm-69" vertex="1">
          <mxGeometry x="40" width="210" height="20" as="geometry">
            <mxRectangle width="210" height="20" as="alternateBounds" />
          </mxGeometry>
        </mxCell>
        <mxCell id="h8qXrJD4TZeDcTLQphAm-75" value="&lt;div&gt;Voti per&lt;/div&gt;&lt;div&gt;studente&lt;br&gt;&lt;/div&gt;" style="rhombus;whiteSpace=wrap;html=1;startSize=30;fontStyle=1;" parent="1" vertex="1">
          <mxGeometry x="1000" y="860" width="80" height="80" as="geometry" />
        </mxCell>
        <mxCell id="h8qXrJD4TZeDcTLQphAm-79" value="Voti" style="shape=table;startSize=30;container=1;collapsible=1;childLayout=tableLayout;fixedRows=1;rowLines=0;fontStyle=1;align=center;resizeLast=1;" parent="1" vertex="1">
          <mxGeometry x="1240" y="700" width="250" height="220" as="geometry" />
        </mxCell>
        <mxCell id="h8qXrJD4TZeDcTLQphAm-80" value="" style="shape=partialRectangle;collapsible=0;dropTarget=0;pointerEvents=0;fillColor=none;points=[[0,0.5],[1,0.5]];portConstraint=eastwest;top=0;left=0;right=0;bottom=1;" parent="h8qXrJD4TZeDcTLQphAm-79" vertex="1">
          <mxGeometry y="30" width="250" height="30" as="geometry" />
        </mxCell>
        <mxCell id="h8qXrJD4TZeDcTLQphAm-81" value="PK" style="shape=partialRectangle;overflow=hidden;connectable=0;fillColor=none;top=0;left=0;bottom=0;right=0;fontStyle=1;" parent="h8qXrJD4TZeDcTLQphAm-80" vertex="1">
          <mxGeometry width="40" height="30" as="geometry">
            <mxRectangle width="40" height="30" as="alternateBounds" />
          </mxGeometry>
        </mxCell>
        <mxCell id="h8qXrJD4TZeDcTLQphAm-82" value="ID (TINYINT)" style="shape=partialRectangle;overflow=hidden;connectable=0;fillColor=none;top=0;left=0;bottom=0;right=0;align=left;spacingLeft=6;fontStyle=5;" parent="h8qXrJD4TZeDcTLQphAm-80" vertex="1">
          <mxGeometry x="40" width="210" height="30" as="geometry">
            <mxRectangle width="210" height="30" as="alternateBounds" />
          </mxGeometry>
        </mxCell>
        <mxCell id="h8qXrJD4TZeDcTLQphAm-83" value="" style="shape=partialRectangle;collapsible=0;dropTarget=0;pointerEvents=0;fillColor=none;points=[[0,0.5],[1,0.5]];portConstraint=eastwest;top=0;left=0;right=0;bottom=0;" parent="h8qXrJD4TZeDcTLQphAm-79" vertex="1">
          <mxGeometry y="60" width="250" height="140" as="geometry" />
        </mxCell>
        <mxCell id="h8qXrJD4TZeDcTLQphAm-84" value="" style="shape=partialRectangle;overflow=hidden;connectable=0;fillColor=none;top=0;left=0;bottom=0;right=0;" parent="h8qXrJD4TZeDcTLQphAm-83" vertex="1">
          <mxGeometry width="40" height="140" as="geometry">
            <mxRectangle width="40" height="140" as="alternateBounds" />
          </mxGeometry>
        </mxCell>
        <mxCell id="h8qXrJD4TZeDcTLQphAm-85" value="18&#xa;&#xa;18&#xa;&#xa;30&#xa;&#xa;12&#xa;&#xa;18" style="shape=partialRectangle;overflow=hidden;connectable=0;fillColor=none;top=0;left=0;bottom=0;right=0;align=left;spacingLeft=6;" parent="h8qXrJD4TZeDcTLQphAm-83" vertex="1">
          <mxGeometry x="40" width="210" height="140" as="geometry">
            <mxRectangle width="210" height="140" as="alternateBounds" />
          </mxGeometry>
        </mxCell>
        <mxCell id="h8qXrJD4TZeDcTLQphAm-86" value="" style="shape=partialRectangle;collapsible=0;dropTarget=0;pointerEvents=0;fillColor=none;points=[[0,0.5],[1,0.5]];portConstraint=eastwest;top=0;left=0;right=0;bottom=0;" parent="h8qXrJD4TZeDcTLQphAm-79" vertex="1">
          <mxGeometry y="200" width="250" height="20" as="geometry" />
        </mxCell>
        <mxCell id="h8qXrJD4TZeDcTLQphAm-87" value="" style="shape=partialRectangle;overflow=hidden;connectable=0;fillColor=none;top=0;left=0;bottom=0;right=0;" parent="h8qXrJD4TZeDcTLQphAm-86" vertex="1">
          <mxGeometry width="40" height="20" as="geometry">
            <mxRectangle width="40" height="20" as="alternateBounds" />
          </mxGeometry>
        </mxCell>
        <mxCell id="h8qXrJD4TZeDcTLQphAm-88" value="" style="shape=partialRectangle;overflow=hidden;connectable=0;fillColor=none;top=0;left=0;bottom=0;right=0;align=left;spacingLeft=6;" parent="h8qXrJD4TZeDcTLQphAm-86" vertex="1">
          <mxGeometry x="40" width="210" height="20" as="geometry">
            <mxRectangle width="210" height="20" as="alternateBounds" />
          </mxGeometry>
        </mxCell>
        <mxCell id="pwPn2gaEZ3_HKGQv34FF-1" value="" style="edgeStyle=entityRelationEdgeStyle;endArrow=ERzeroToMany;startArrow=ERone;endFill=1;startFill=0;" edge="1" parent="1" source="C-vyLk0tnHw3VtMMgP7b-24" target="h8qXrJD4TZeDcTLQphAm-74">
          <mxGeometry width="100" height="100" relative="1" as="geometry">
            <mxPoint x="1120" y="255" as="sourcePoint" />
            <mxPoint x="1320" y="305" as="targetPoint" />
          </mxGeometry>
        </mxCell>
        <mxCell id="h8qXrJD4TZeDcTLQphAm-74" value="&lt;div&gt;Selezione &lt;br&gt;&lt;/div&gt;&lt;div&gt;Uni&lt;br&gt;&lt;/div&gt;" style="rhombus;whiteSpace=wrap;html=1;" parent="1" vertex="1">
          <mxGeometry x="1170" y="240" width="80" height="80" as="geometry" />
        </mxCell>
        <mxCell id="pwPn2gaEZ3_HKGQv34FF-2" value="" style="edgeStyle=none;orthogonalLoop=1;jettySize=auto;html=1;rounded=0;entryX=0.998;entryY=0.476;entryDx=0;entryDy=0;entryPerimeter=0;exitX=0.398;exitY=0.98;exitDx=0;exitDy=0;exitPerimeter=0;" edge="1" parent="1" source="h8qXrJD4TZeDcTLQphAm-6" target="h8qXrJD4TZeDcTLQphAm-16">
          <mxGeometry width="100" relative="1" as="geometry">
            <mxPoint x="660" y="530" as="sourcePoint" />
            <mxPoint x="760" y="530" as="targetPoint" />
            <Array as="points" />
          </mxGeometry>
        </mxCell>
        <mxCell id="pwPn2gaEZ3_HKGQv34FF-3" value="" style="edgeStyle=none;orthogonalLoop=1;jettySize=auto;html=1;rounded=0;entryX=1;entryY=0.5;entryDx=0;entryDy=0;" edge="1" parent="1" source="h8qXrJD4TZeDcTLQphAm-19" target="h8qXrJD4TZeDcTLQphAm-27">
          <mxGeometry width="100" relative="1" as="geometry">
            <mxPoint x="260" y="540" as="sourcePoint" />
            <mxPoint x="280" y="450" as="targetPoint" />
            <Array as="points" />
          </mxGeometry>
        </mxCell>
        <mxCell id="pwPn2gaEZ3_HKGQv34FF-8" value="" style="edgeStyle=none;orthogonalLoop=1;jettySize=auto;html=1;rounded=0;entryX=-0.009;entryY=0.669;entryDx=0;entryDy=0;entryPerimeter=0;" edge="1" parent="1" target="h8qXrJD4TZeDcTLQphAm-83">
          <mxGeometry width="100" relative="1" as="geometry">
            <mxPoint x="1080" y="900" as="sourcePoint" />
            <mxPoint x="1180" y="850" as="targetPoint" />
            <Array as="points" />
          </mxGeometry>
        </mxCell>
      </root>
    </mxGraphModel>
  </diagram>
</mxfile>
